<mxfile host="app.diagrams.net" modified="2023-12-02T12:47:20.817Z" agent="Mozilla/5.0 (Windows NT 10.0; Win64; x64) AppleWebKit/537.36 (KHTML, like Gecko) Chrome/119.0.0.0 Safari/537.36" etag="4TMIc7d8fnHP6gqf8bZY" version="22.1.5" type="google">
  <diagram name="Sayfa -1" id="hyLO2DmeNDRgx9ey1IWl">
    <mxGraphModel grid="1" page="1" gridSize="10" guides="1" tooltips="1" connect="1" arrows="1" fold="1" pageScale="1" pageWidth="827" pageHeight="1169" math="0" shadow="0">
      <root>
        <mxCell id="0" />
        <mxCell id="1" parent="0" />
        <mxCell id="w-RUWUxg6B33_gkkQk5O-5" value="Admin" style="swimlane;fontStyle=0;childLayout=stackLayout;horizontal=1;startSize=26;fillColor=none;horizontalStack=0;resizeParent=1;resizeParentMax=0;resizeLast=0;collapsible=1;marginBottom=0;whiteSpace=wrap;html=1;" vertex="1" parent="1">
          <mxGeometry x="280" y="-140" width="140" height="208" as="geometry" />
        </mxCell>
        <mxCell id="w-RUWUxg6B33_gkkQk5O-6" value="+ user_id" style="text;strokeColor=none;fillColor=none;align=left;verticalAlign=top;spacingLeft=4;spacingRight=4;overflow=hidden;rotatable=0;points=[[0,0.5],[1,0.5]];portConstraint=eastwest;whiteSpace=wrap;html=1;" vertex="1" parent="w-RUWUxg6B33_gkkQk5O-5">
          <mxGeometry y="26" width="140" height="26" as="geometry" />
        </mxCell>
        <mxCell id="w-RUWUxg6B33_gkkQk5O-7" value="+ username" style="text;strokeColor=none;fillColor=none;align=left;verticalAlign=top;spacingLeft=4;spacingRight=4;overflow=hidden;rotatable=0;points=[[0,0.5],[1,0.5]];portConstraint=eastwest;whiteSpace=wrap;html=1;" vertex="1" parent="w-RUWUxg6B33_gkkQk5O-5">
          <mxGeometry y="52" width="140" height="26" as="geometry" />
        </mxCell>
        <mxCell id="w-RUWUxg6B33_gkkQk5O-8" value="+ email" style="text;strokeColor=none;fillColor=none;align=left;verticalAlign=top;spacingLeft=4;spacingRight=4;overflow=hidden;rotatable=0;points=[[0,0.5],[1,0.5]];portConstraint=eastwest;whiteSpace=wrap;html=1;" vertex="1" parent="w-RUWUxg6B33_gkkQk5O-5">
          <mxGeometry y="78" width="140" height="26" as="geometry" />
        </mxCell>
        <mxCell id="w-RUWUxg6B33_gkkQk5O-103" value="+ name" style="text;strokeColor=none;fillColor=none;align=left;verticalAlign=top;spacingLeft=4;spacingRight=4;overflow=hidden;rotatable=0;points=[[0,0.5],[1,0.5]];portConstraint=eastwest;whiteSpace=wrap;html=1;" vertex="1" parent="w-RUWUxg6B33_gkkQk5O-5">
          <mxGeometry y="104" width="140" height="26" as="geometry" />
        </mxCell>
        <mxCell id="w-RUWUxg6B33_gkkQk5O-104" value="+ avatar" style="text;strokeColor=none;fillColor=none;align=left;verticalAlign=top;spacingLeft=4;spacingRight=4;overflow=hidden;rotatable=0;points=[[0,0.5],[1,0.5]];portConstraint=eastwest;whiteSpace=wrap;html=1;" vertex="1" parent="w-RUWUxg6B33_gkkQk5O-5">
          <mxGeometry y="130" width="140" height="26" as="geometry" />
        </mxCell>
        <mxCell id="w-RUWUxg6B33_gkkQk5O-105" value="+ password" style="text;strokeColor=none;fillColor=none;align=left;verticalAlign=top;spacingLeft=4;spacingRight=4;overflow=hidden;rotatable=0;points=[[0,0.5],[1,0.5]];portConstraint=eastwest;whiteSpace=wrap;html=1;" vertex="1" parent="w-RUWUxg6B33_gkkQk5O-5">
          <mxGeometry y="156" width="140" height="26" as="geometry" />
        </mxCell>
        <mxCell id="w-RUWUxg6B33_gkkQk5O-106" value="+ user_type" style="text;strokeColor=none;fillColor=none;align=left;verticalAlign=top;spacingLeft=4;spacingRight=4;overflow=hidden;rotatable=0;points=[[0,0.5],[1,0.5]];portConstraint=eastwest;whiteSpace=wrap;html=1;" vertex="1" parent="w-RUWUxg6B33_gkkQk5O-5">
          <mxGeometry y="182" width="140" height="26" as="geometry" />
        </mxCell>
        <mxCell id="w-RUWUxg6B33_gkkQk5O-12" value="Recipe" style="swimlane;fontStyle=0;childLayout=stackLayout;horizontal=1;startSize=26;fillColor=none;horizontalStack=0;resizeParent=1;resizeParentMax=0;resizeLast=0;collapsible=1;marginBottom=0;whiteSpace=wrap;html=1;" vertex="1" parent="1">
          <mxGeometry x="430" y="90" width="140" height="260" as="geometry" />
        </mxCell>
        <mxCell id="w-RUWUxg6B33_gkkQk5O-13" value="+ rec_id" style="text;strokeColor=none;fillColor=none;align=left;verticalAlign=top;spacingLeft=4;spacingRight=4;overflow=hidden;rotatable=0;points=[[0,0.5],[1,0.5]];portConstraint=eastwest;whiteSpace=wrap;html=1;" vertex="1" parent="w-RUWUxg6B33_gkkQk5O-12">
          <mxGeometry y="26" width="140" height="26" as="geometry" />
        </mxCell>
        <mxCell id="w-RUWUxg6B33_gkkQk5O-14" value="+ creator_id" style="text;strokeColor=none;fillColor=none;align=left;verticalAlign=top;spacingLeft=4;spacingRight=4;overflow=hidden;rotatable=0;points=[[0,0.5],[1,0.5]];portConstraint=eastwest;whiteSpace=wrap;html=1;" vertex="1" parent="w-RUWUxg6B33_gkkQk5O-12">
          <mxGeometry y="52" width="140" height="26" as="geometry" />
        </mxCell>
        <mxCell id="w-RUWUxg6B33_gkkQk5O-15" value="+ name" style="text;strokeColor=none;fillColor=none;align=left;verticalAlign=top;spacingLeft=4;spacingRight=4;overflow=hidden;rotatable=0;points=[[0,0.5],[1,0.5]];portConstraint=eastwest;whiteSpace=wrap;html=1;" vertex="1" parent="w-RUWUxg6B33_gkkQk5O-12">
          <mxGeometry y="78" width="140" height="26" as="geometry" />
        </mxCell>
        <mxCell id="w-RUWUxg6B33_gkkQk5O-97" value="+ description" style="text;strokeColor=none;fillColor=none;align=left;verticalAlign=top;spacingLeft=4;spacingRight=4;overflow=hidden;rotatable=0;points=[[0,0.5],[1,0.5]];portConstraint=eastwest;whiteSpace=wrap;html=1;" vertex="1" parent="w-RUWUxg6B33_gkkQk5O-12">
          <mxGeometry y="104" width="140" height="26" as="geometry" />
        </mxCell>
        <mxCell id="w-RUWUxg6B33_gkkQk5O-98" value="+ dietary type" style="text;strokeColor=none;fillColor=none;align=left;verticalAlign=top;spacingLeft=4;spacingRight=4;overflow=hidden;rotatable=0;points=[[0,0.5],[1,0.5]];portConstraint=eastwest;whiteSpace=wrap;html=1;" vertex="1" parent="w-RUWUxg6B33_gkkQk5O-12">
          <mxGeometry y="130" width="140" height="26" as="geometry" />
        </mxCell>
        <mxCell id="w-RUWUxg6B33_gkkQk5O-99" value="+ iingredients" style="text;strokeColor=none;fillColor=none;align=left;verticalAlign=top;spacingLeft=4;spacingRight=4;overflow=hidden;rotatable=0;points=[[0,0.5],[1,0.5]];portConstraint=eastwest;whiteSpace=wrap;html=1;" vertex="1" parent="w-RUWUxg6B33_gkkQk5O-12">
          <mxGeometry y="156" width="140" height="26" as="geometry" />
        </mxCell>
        <mxCell id="w-RUWUxg6B33_gkkQk5O-109" value="+ cost" style="text;strokeColor=none;fillColor=none;align=left;verticalAlign=top;spacingLeft=4;spacingRight=4;overflow=hidden;rotatable=0;points=[[0,0.5],[1,0.5]];portConstraint=eastwest;whiteSpace=wrap;html=1;" vertex="1" parent="w-RUWUxg6B33_gkkQk5O-12">
          <mxGeometry y="182" width="140" height="26" as="geometry" />
        </mxCell>
        <mxCell id="w-RUWUxg6B33_gkkQk5O-195" value="+ image" style="text;strokeColor=none;fillColor=none;align=left;verticalAlign=top;spacingLeft=4;spacingRight=4;overflow=hidden;rotatable=0;points=[[0,0.5],[1,0.5]];portConstraint=eastwest;whiteSpace=wrap;html=1;" vertex="1" parent="w-RUWUxg6B33_gkkQk5O-12">
          <mxGeometry y="208" width="140" height="26" as="geometry" />
        </mxCell>
        <mxCell id="w-RUWUxg6B33_gkkQk5O-196" value="+ creation_date" style="text;strokeColor=none;fillColor=none;align=left;verticalAlign=top;spacingLeft=4;spacingRight=4;overflow=hidden;rotatable=0;points=[[0,0.5],[1,0.5]];portConstraint=eastwest;whiteSpace=wrap;html=1;" vertex="1" parent="w-RUWUxg6B33_gkkQk5O-12">
          <mxGeometry y="234" width="140" height="26" as="geometry" />
        </mxCell>
        <mxCell id="w-RUWUxg6B33_gkkQk5O-16" value="Account" style="swimlane;fontStyle=0;childLayout=stackLayout;horizontal=1;startSize=26;fillColor=none;horizontalStack=0;resizeParent=1;resizeParentMax=0;resizeLast=0;collapsible=1;marginBottom=0;whiteSpace=wrap;html=1;" vertex="1" parent="1">
          <mxGeometry x="-110" y="90" width="140" height="104" as="geometry" />
        </mxCell>
        <mxCell id="w-RUWUxg6B33_gkkQk5O-17" value="+ username" style="text;strokeColor=none;fillColor=none;align=left;verticalAlign=top;spacingLeft=4;spacingRight=4;overflow=hidden;rotatable=0;points=[[0,0.5],[1,0.5]];portConstraint=eastwest;whiteSpace=wrap;html=1;" vertex="1" parent="w-RUWUxg6B33_gkkQk5O-16">
          <mxGeometry y="26" width="140" height="26" as="geometry" />
        </mxCell>
        <mxCell id="w-RUWUxg6B33_gkkQk5O-18" value="+ email" style="text;strokeColor=none;fillColor=none;align=left;verticalAlign=top;spacingLeft=4;spacingRight=4;overflow=hidden;rotatable=0;points=[[0,0.5],[1,0.5]];portConstraint=eastwest;whiteSpace=wrap;html=1;" vertex="1" parent="w-RUWUxg6B33_gkkQk5O-16">
          <mxGeometry y="52" width="140" height="26" as="geometry" />
        </mxCell>
        <mxCell id="w-RUWUxg6B33_gkkQk5O-19" value="+ password" style="text;strokeColor=none;fillColor=none;align=left;verticalAlign=top;spacingLeft=4;spacingRight=4;overflow=hidden;rotatable=0;points=[[0,0.5],[1,0.5]];portConstraint=eastwest;whiteSpace=wrap;html=1;" vertex="1" parent="w-RUWUxg6B33_gkkQk5O-16">
          <mxGeometry y="78" width="140" height="26" as="geometry" />
        </mxCell>
        <mxCell id="w-RUWUxg6B33_gkkQk5O-20" value="User" style="swimlane;fontStyle=0;childLayout=stackLayout;horizontal=1;startSize=26;fillColor=none;horizontalStack=0;resizeParent=1;resizeParentMax=0;resizeLast=0;collapsible=1;marginBottom=0;whiteSpace=wrap;html=1;" vertex="1" parent="1">
          <mxGeometry x="180" y="90" width="140" height="290" as="geometry" />
        </mxCell>
        <mxCell id="w-RUWUxg6B33_gkkQk5O-21" value="+ user_id" style="text;strokeColor=none;fillColor=none;align=left;verticalAlign=top;spacingLeft=4;spacingRight=4;overflow=hidden;rotatable=0;points=[[0,0.5],[1,0.5]];portConstraint=eastwest;whiteSpace=wrap;html=1;" vertex="1" parent="w-RUWUxg6B33_gkkQk5O-20">
          <mxGeometry y="26" width="140" height="26" as="geometry" />
        </mxCell>
        <mxCell id="w-RUWUxg6B33_gkkQk5O-22" value="+ username" style="text;strokeColor=none;fillColor=none;align=left;verticalAlign=top;spacingLeft=4;spacingRight=4;overflow=hidden;rotatable=0;points=[[0,0.5],[1,0.5]];portConstraint=eastwest;whiteSpace=wrap;html=1;" vertex="1" parent="w-RUWUxg6B33_gkkQk5O-20">
          <mxGeometry y="52" width="140" height="26" as="geometry" />
        </mxCell>
        <mxCell id="w-RUWUxg6B33_gkkQk5O-23" value="+ email" style="text;strokeColor=none;fillColor=none;align=left;verticalAlign=top;spacingLeft=4;spacingRight=4;overflow=hidden;rotatable=0;points=[[0,0.5],[1,0.5]];portConstraint=eastwest;whiteSpace=wrap;html=1;" vertex="1" parent="w-RUWUxg6B33_gkkQk5O-20">
          <mxGeometry y="78" width="140" height="32" as="geometry" />
        </mxCell>
        <mxCell id="w-RUWUxg6B33_gkkQk5O-93" value="+ name" style="text;strokeColor=none;fillColor=none;align=left;verticalAlign=top;spacingLeft=4;spacingRight=4;overflow=hidden;rotatable=0;points=[[0,0.5],[1,0.5]];portConstraint=eastwest;whiteSpace=wrap;html=1;" vertex="1" parent="w-RUWUxg6B33_gkkQk5O-20">
          <mxGeometry y="110" width="140" height="32" as="geometry" />
        </mxCell>
        <mxCell id="w-RUWUxg6B33_gkkQk5O-95" value="+ avatar" style="text;strokeColor=none;fillColor=none;align=left;verticalAlign=top;spacingLeft=4;spacingRight=4;overflow=hidden;rotatable=0;points=[[0,0.5],[1,0.5]];portConstraint=eastwest;whiteSpace=wrap;html=1;" vertex="1" parent="w-RUWUxg6B33_gkkQk5O-20">
          <mxGeometry y="142" width="140" height="32" as="geometry" />
        </mxCell>
        <mxCell id="w-RUWUxg6B33_gkkQk5O-94" value="+ password" style="text;strokeColor=none;fillColor=none;align=left;verticalAlign=top;spacingLeft=4;spacingRight=4;overflow=hidden;rotatable=0;points=[[0,0.5],[1,0.5]];portConstraint=eastwest;whiteSpace=wrap;html=1;" vertex="1" parent="w-RUWUxg6B33_gkkQk5O-20">
          <mxGeometry y="174" width="140" height="32" as="geometry" />
        </mxCell>
        <mxCell id="w-RUWUxg6B33_gkkQk5O-100" value="+ user_type" style="text;strokeColor=none;fillColor=none;align=left;verticalAlign=top;spacingLeft=4;spacingRight=4;overflow=hidden;rotatable=0;points=[[0,0.5],[1,0.5]];portConstraint=eastwest;whiteSpace=wrap;html=1;" vertex="1" parent="w-RUWUxg6B33_gkkQk5O-20">
          <mxGeometry y="206" width="140" height="32" as="geometry" />
        </mxCell>
        <mxCell id="w-RUWUxg6B33_gkkQk5O-107" value="+ biography" style="text;strokeColor=none;fillColor=none;align=left;verticalAlign=top;spacingLeft=4;spacingRight=4;overflow=hidden;rotatable=0;points=[[0,0.5],[1,0.5]];portConstraint=eastwest;whiteSpace=wrap;html=1;" vertex="1" parent="w-RUWUxg6B33_gkkQk5O-20">
          <mxGeometry y="238" width="140" height="26" as="geometry" />
        </mxCell>
        <mxCell id="w-RUWUxg6B33_gkkQk5O-108" value="+ followers" style="text;strokeColor=none;fillColor=none;align=left;verticalAlign=top;spacingLeft=4;spacingRight=4;overflow=hidden;rotatable=0;points=[[0,0.5],[1,0.5]];portConstraint=eastwest;whiteSpace=wrap;html=1;" vertex="1" parent="w-RUWUxg6B33_gkkQk5O-20">
          <mxGeometry y="264" width="140" height="26" as="geometry" />
        </mxCell>
        <mxCell id="w-RUWUxg6B33_gkkQk5O-152" value="" style="curved=1;endArrow=classic;html=1;rounded=0;exitX=0.987;exitY=0.915;exitDx=0;exitDy=0;exitPerimeter=0;entryX=1;entryY=0.5;entryDx=0;entryDy=0;" edge="1" parent="w-RUWUxg6B33_gkkQk5O-20" source="w-RUWUxg6B33_gkkQk5O-108" target="w-RUWUxg6B33_gkkQk5O-100">
          <mxGeometry width="50" height="50" relative="1" as="geometry">
            <mxPoint x="165" y="280" as="sourcePoint" />
            <mxPoint x="215" y="230" as="targetPoint" />
            <Array as="points">
              <mxPoint x="215" y="280" />
              <mxPoint x="165" y="230" />
            </Array>
          </mxGeometry>
        </mxCell>
        <mxCell id="w-RUWUxg6B33_gkkQk5O-24" value="Visitor" style="swimlane;fontStyle=0;childLayout=stackLayout;horizontal=1;startSize=26;fillColor=none;horizontalStack=0;resizeParent=1;resizeParentMax=0;resizeLast=0;collapsible=1;marginBottom=0;whiteSpace=wrap;html=1;" vertex="1" parent="1">
          <mxGeometry x="-445" y="128" width="140" height="52" as="geometry" />
        </mxCell>
        <mxCell id="w-RUWUxg6B33_gkkQk5O-33" value="" style="endArrow=none;html=1;rounded=0;exitX=1;exitY=0.5;exitDx=0;exitDy=0;entryX=0;entryY=0.5;entryDx=0;entryDy=0;" edge="1" parent="1" target="w-RUWUxg6B33_gkkQk5O-18">
          <mxGeometry width="50" height="50" relative="1" as="geometry">
            <mxPoint x="-300" y="156" as="sourcePoint" />
            <mxPoint x="440" y="220" as="targetPoint" />
          </mxGeometry>
        </mxCell>
        <mxCell id="w-RUWUxg6B33_gkkQk5O-38" value="" style="endArrow=none;html=1;rounded=0;entryX=0.439;entryY=-0.002;entryDx=0;entryDy=0;entryPerimeter=0;" edge="1" parent="1" target="w-RUWUxg6B33_gkkQk5O-20">
          <mxGeometry width="50" height="50" relative="1" as="geometry">
            <mxPoint x="270" y="-80" as="sourcePoint" />
            <mxPoint x="440" y="100" as="targetPoint" />
            <Array as="points">
              <mxPoint x="240" y="-80" />
            </Array>
          </mxGeometry>
        </mxCell>
        <mxCell id="w-RUWUxg6B33_gkkQk5O-39" value="" style="endArrow=none;html=1;rounded=0;exitX=1.021;exitY=0.131;exitDx=0;exitDy=0;exitPerimeter=0;" edge="1" parent="1" source="w-RUWUxg6B33_gkkQk5O-7">
          <mxGeometry width="50" height="50" relative="1" as="geometry">
            <mxPoint x="390" y="150" as="sourcePoint" />
            <mxPoint x="520" y="80" as="targetPoint" />
            <Array as="points">
              <mxPoint x="520" y="-85" />
            </Array>
          </mxGeometry>
        </mxCell>
        <mxCell id="w-RUWUxg6B33_gkkQk5O-40" value="Manage" style="text;html=1;align=center;verticalAlign=middle;resizable=0;points=[];autosize=1;strokeColor=none;fillColor=none;" vertex="1" parent="1">
          <mxGeometry x="170" y="-30" width="70" height="30" as="geometry" />
        </mxCell>
        <mxCell id="w-RUWUxg6B33_gkkQk5O-41" value="Manage" style="text;html=1;align=center;verticalAlign=middle;resizable=0;points=[];autosize=1;strokeColor=none;fillColor=none;" vertex="1" parent="1">
          <mxGeometry x="525" y="-42" width="70" height="30" as="geometry" />
        </mxCell>
        <mxCell id="w-RUWUxg6B33_gkkQk5O-50" value="Creates" style="text;html=1;align=center;verticalAlign=middle;resizable=0;points=[];autosize=1;strokeColor=none;fillColor=none;" vertex="1" parent="1">
          <mxGeometry x="-250" y="127" width="70" height="30" as="geometry" />
        </mxCell>
        <mxCell id="w-RUWUxg6B33_gkkQk5O-51" value="" style="endArrow=none;html=1;rounded=0;exitX=1;exitY=0.5;exitDx=0;exitDy=0;entryX=0;entryY=0.5;entryDx=0;entryDy=0;" edge="1" parent="1" source="w-RUWUxg6B33_gkkQk5O-18" target="w-RUWUxg6B33_gkkQk5O-22">
          <mxGeometry width="50" height="50" relative="1" as="geometry">
            <mxPoint x="110" y="150" as="sourcePoint" />
            <mxPoint x="160" y="100" as="targetPoint" />
          </mxGeometry>
        </mxCell>
        <mxCell id="w-RUWUxg6B33_gkkQk5O-52" value="Owns" style="text;html=1;align=center;verticalAlign=middle;resizable=0;points=[];autosize=1;strokeColor=none;fillColor=none;" vertex="1" parent="1">
          <mxGeometry x="90" y="127" width="50" height="30" as="geometry" />
        </mxCell>
        <mxCell id="w-RUWUxg6B33_gkkQk5O-56" value="" style="html=1;shadow=0;dashed=0;align=center;verticalAlign=middle;shape=mxgraph.arrows2.arrow;dy=0.6;dx=40;notch=0;" vertex="1" parent="1">
          <mxGeometry x="-190" y="137" width="20" height="10" as="geometry" />
        </mxCell>
        <mxCell id="w-RUWUxg6B33_gkkQk5O-62" value="" style="html=1;shadow=0;dashed=0;align=center;verticalAlign=middle;shape=mxgraph.arrows2.arrow;dy=0.6;dx=40;flipH=1;notch=0;" vertex="1" parent="1">
          <mxGeometry x="105" y="-227" width="20" height="20" as="geometry" />
        </mxCell>
        <mxCell id="w-RUWUxg6B33_gkkQk5O-63" value="" style="html=1;shadow=0;dashed=0;align=center;verticalAlign=middle;shape=mxgraph.arrows2.arrow;dy=0.6;dx=40;flipH=1;notch=0;" vertex="1" parent="1">
          <mxGeometry x="70" y="133" width="20" height="20" as="geometry" />
        </mxCell>
        <mxCell id="w-RUWUxg6B33_gkkQk5O-67" value="" style="html=1;shadow=0;dashed=0;align=center;verticalAlign=middle;shape=mxgraph.arrows2.arrow;dy=0.6;dx=40;direction=south;notch=0;" vertex="1" parent="1">
          <mxGeometry x="200" width="20" height="20" as="geometry" />
        </mxCell>
        <mxCell id="w-RUWUxg6B33_gkkQk5O-70" value="" style="html=1;shadow=0;dashed=0;align=center;verticalAlign=middle;shape=mxgraph.arrows2.arrow;dy=0.6;dx=40;direction=south;notch=0;" vertex="1" parent="1">
          <mxGeometry x="550" y="-12" width="20" height="20" as="geometry" />
        </mxCell>
        <mxCell id="w-RUWUxg6B33_gkkQk5O-82" value="Receives" style="text;html=1;align=center;verticalAlign=middle;resizable=0;points=[];autosize=1;strokeColor=none;fillColor=none;" vertex="1" parent="1">
          <mxGeometry x="75" y="480" width="70" height="30" as="geometry" />
        </mxCell>
        <mxCell id="w-RUWUxg6B33_gkkQk5O-84" value="" style="html=1;shadow=0;dashed=0;align=center;verticalAlign=middle;shape=mxgraph.arrows2.arrow;dy=0.6;dx=40;notch=0;" vertex="1" parent="1">
          <mxGeometry x="135" y="487" width="20" height="16" as="geometry" />
        </mxCell>
        <mxCell id="w-RUWUxg6B33_gkkQk5O-88" value="" style="endArrow=none;html=1;rounded=0;entryX=0.5;entryY=0;entryDx=0;entryDy=0;exitX=0.5;exitY=0;exitDx=0;exitDy=0;" edge="1" parent="1" source="w-RUWUxg6B33_gkkQk5O-16" target="w-RUWUxg6B33_gkkQk5O-5">
          <mxGeometry width="50" height="50" relative="1" as="geometry">
            <mxPoint x="110" y="50" as="sourcePoint" />
            <mxPoint x="160" as="targetPoint" />
            <Array as="points">
              <mxPoint x="-40" y="-200" />
              <mxPoint x="350" y="-200" />
            </Array>
          </mxGeometry>
        </mxCell>
        <mxCell id="w-RUWUxg6B33_gkkQk5O-89" value="Owns" style="text;html=1;align=center;verticalAlign=middle;resizable=0;points=[];autosize=1;strokeColor=none;fillColor=none;" vertex="1" parent="1">
          <mxGeometry x="125" y="-232" width="50" height="30" as="geometry" />
        </mxCell>
        <mxCell id="w-RUWUxg6B33_gkkQk5O-110" value="" style="endArrow=none;html=1;rounded=0;entryX=0;entryY=0.769;entryDx=0;entryDy=0;entryPerimeter=0;" edge="1" parent="1" target="w-RUWUxg6B33_gkkQk5O-98">
          <mxGeometry width="50" height="50" relative="1" as="geometry">
            <mxPoint x="320" y="240" as="sourcePoint" />
            <mxPoint x="160" y="200" as="targetPoint" />
          </mxGeometry>
        </mxCell>
        <mxCell id="w-RUWUxg6B33_gkkQk5O-112" value="Creates" style="text;html=1;align=center;verticalAlign=middle;resizable=0;points=[];autosize=1;strokeColor=none;fillColor=none;" vertex="1" parent="1">
          <mxGeometry x="330" y="210" width="70" height="30" as="geometry" />
        </mxCell>
        <mxCell id="w-RUWUxg6B33_gkkQk5O-113" value="" style="html=1;shadow=0;dashed=0;align=center;verticalAlign=middle;shape=mxgraph.arrows2.arrow;dy=0.6;dx=40;notch=0;" vertex="1" parent="1">
          <mxGeometry x="390" y="220" width="20" height="10" as="geometry" />
        </mxCell>
        <mxCell id="w-RUWUxg6B33_gkkQk5O-114" value="Search filters" style="swimlane;fontStyle=0;childLayout=stackLayout;horizontal=1;startSize=26;fillColor=none;horizontalStack=0;resizeParent=1;resizeParentMax=0;resizeLast=0;collapsible=1;marginBottom=0;whiteSpace=wrap;html=1;" vertex="1" parent="1">
          <mxGeometry x="320" y="440" width="140" height="130" as="geometry" />
        </mxCell>
        <mxCell id="w-RUWUxg6B33_gkkQk5O-115" value="+ name" style="text;strokeColor=none;fillColor=none;align=left;verticalAlign=top;spacingLeft=4;spacingRight=4;overflow=hidden;rotatable=0;points=[[0,0.5],[1,0.5]];portConstraint=eastwest;whiteSpace=wrap;html=1;" vertex="1" parent="w-RUWUxg6B33_gkkQk5O-114">
          <mxGeometry y="26" width="140" height="26" as="geometry" />
        </mxCell>
        <mxCell id="w-RUWUxg6B33_gkkQk5O-116" value="+ dietary type" style="text;strokeColor=none;fillColor=none;align=left;verticalAlign=top;spacingLeft=4;spacingRight=4;overflow=hidden;rotatable=0;points=[[0,0.5],[1,0.5]];portConstraint=eastwest;whiteSpace=wrap;html=1;" vertex="1" parent="w-RUWUxg6B33_gkkQk5O-114">
          <mxGeometry y="52" width="140" height="26" as="geometry" />
        </mxCell>
        <mxCell id="w-RUWUxg6B33_gkkQk5O-117" value="+ ingredients" style="text;strokeColor=none;fillColor=none;align=left;verticalAlign=top;spacingLeft=4;spacingRight=4;overflow=hidden;rotatable=0;points=[[0,0.5],[1,0.5]];portConstraint=eastwest;whiteSpace=wrap;html=1;" vertex="1" parent="w-RUWUxg6B33_gkkQk5O-114">
          <mxGeometry y="78" width="140" height="26" as="geometry" />
        </mxCell>
        <mxCell id="w-RUWUxg6B33_gkkQk5O-118" value="+ costs" style="text;strokeColor=none;fillColor=none;align=left;verticalAlign=top;spacingLeft=4;spacingRight=4;overflow=hidden;rotatable=0;points=[[0,0.5],[1,0.5]];portConstraint=eastwest;whiteSpace=wrap;html=1;" vertex="1" parent="w-RUWUxg6B33_gkkQk5O-114">
          <mxGeometry y="104" width="140" height="26" as="geometry" />
        </mxCell>
        <mxCell id="w-RUWUxg6B33_gkkQk5O-119" value="Recipe Interraction" style="swimlane;fontStyle=0;childLayout=stackLayout;horizontal=1;startSize=26;fillColor=none;horizontalStack=0;resizeParent=1;resizeParentMax=0;resizeLast=0;collapsible=1;marginBottom=0;whiteSpace=wrap;html=1;" vertex="1" parent="1">
          <mxGeometry x="320" y="600" width="140" height="78" as="geometry" />
        </mxCell>
        <mxCell id="w-RUWUxg6B33_gkkQk5O-120" value="+ comments" style="text;strokeColor=none;fillColor=none;align=left;verticalAlign=top;spacingLeft=4;spacingRight=4;overflow=hidden;rotatable=0;points=[[0,0.5],[1,0.5]];portConstraint=eastwest;whiteSpace=wrap;html=1;" vertex="1" parent="w-RUWUxg6B33_gkkQk5O-119">
          <mxGeometry y="26" width="140" height="26" as="geometry" />
        </mxCell>
        <mxCell id="w-RUWUxg6B33_gkkQk5O-121" value="+ ratings" style="text;strokeColor=none;fillColor=none;align=left;verticalAlign=top;spacingLeft=4;spacingRight=4;overflow=hidden;rotatable=0;points=[[0,0.5],[1,0.5]];portConstraint=eastwest;whiteSpace=wrap;html=1;" vertex="1" parent="w-RUWUxg6B33_gkkQk5O-119">
          <mxGeometry y="52" width="140" height="26" as="geometry" />
        </mxCell>
        <mxCell id="w-RUWUxg6B33_gkkQk5O-123" value="" style="endArrow=none;html=1;rounded=0;entryX=0.41;entryY=1.069;entryDx=0;entryDy=0;entryPerimeter=0;exitX=0;exitY=0.077;exitDx=0;exitDy=0;exitPerimeter=0;" edge="1" parent="1" source="w-RUWUxg6B33_gkkQk5O-117" target="w-RUWUxg6B33_gkkQk5O-108">
          <mxGeometry width="50" height="50" relative="1" as="geometry">
            <mxPoint x="110" y="450" as="sourcePoint" />
            <mxPoint x="160" y="400" as="targetPoint" />
            <Array as="points">
              <mxPoint x="237" y="520" />
            </Array>
          </mxGeometry>
        </mxCell>
        <mxCell id="w-RUWUxg6B33_gkkQk5O-125" value="Applies" style="text;html=1;align=center;verticalAlign=middle;resizable=0;points=[];autosize=1;strokeColor=none;fillColor=none;" vertex="1" parent="1">
          <mxGeometry x="230" y="440" width="60" height="30" as="geometry" />
        </mxCell>
        <mxCell id="w-RUWUxg6B33_gkkQk5O-126" value="" style="endArrow=none;html=1;rounded=0;exitX=1.044;exitY=0.054;exitDx=0;exitDy=0;exitPerimeter=0;" edge="1" parent="1" source="w-RUWUxg6B33_gkkQk5O-117">
          <mxGeometry width="50" height="50" relative="1" as="geometry">
            <mxPoint x="110" y="450" as="sourcePoint" />
            <mxPoint x="520" y="350" as="targetPoint" />
            <Array as="points">
              <mxPoint x="520" y="520" />
            </Array>
          </mxGeometry>
        </mxCell>
        <mxCell id="w-RUWUxg6B33_gkkQk5O-127" value="Finds" style="text;html=1;align=center;verticalAlign=middle;resizable=0;points=[];autosize=1;strokeColor=none;fillColor=none;" vertex="1" parent="1">
          <mxGeometry x="515" y="398" width="50" height="30" as="geometry" />
        </mxCell>
        <mxCell id="w-RUWUxg6B33_gkkQk5O-128" value="" style="html=1;shadow=0;dashed=0;align=center;verticalAlign=middle;shape=mxgraph.arrows2.arrow;dy=0.6;dx=40;direction=south;notch=0;" vertex="1" parent="1">
          <mxGeometry x="245" y="470" width="20" height="20" as="geometry" />
        </mxCell>
        <mxCell id="w-RUWUxg6B33_gkkQk5O-129" value="" style="html=1;shadow=0;dashed=0;align=center;verticalAlign=middle;shape=mxgraph.arrows2.arrow;dy=0.6;dx=40;direction=north;notch=0;" vertex="1" parent="1">
          <mxGeometry x="530" y="378" width="20" height="20" as="geometry" />
        </mxCell>
        <mxCell id="w-RUWUxg6B33_gkkQk5O-130" value="" style="endArrow=none;html=1;rounded=0;entryX=0.141;entryY=1.131;entryDx=0;entryDy=0;entryPerimeter=0;exitX=-0.019;exitY=0.854;exitDx=0;exitDy=0;exitPerimeter=0;" edge="1" parent="1" source="w-RUWUxg6B33_gkkQk5O-120" target="w-RUWUxg6B33_gkkQk5O-108">
          <mxGeometry width="50" height="50" relative="1" as="geometry">
            <mxPoint x="110" y="450" as="sourcePoint" />
            <mxPoint x="160" y="400" as="targetPoint" />
            <Array as="points">
              <mxPoint x="200" y="648" />
            </Array>
          </mxGeometry>
        </mxCell>
        <mxCell id="w-RUWUxg6B33_gkkQk5O-131" value="" style="html=1;shadow=0;dashed=0;align=center;verticalAlign=middle;shape=mxgraph.arrows2.arrow;dy=0.6;dx=40;direction=south;notch=0;" vertex="1" parent="1">
          <mxGeometry x="170" y="575" width="20" height="20" as="geometry" />
        </mxCell>
        <mxCell id="w-RUWUxg6B33_gkkQk5O-132" value="Makes" style="text;html=1;align=center;verticalAlign=middle;resizable=0;points=[];autosize=1;strokeColor=none;fillColor=none;" vertex="1" parent="1">
          <mxGeometry x="145" y="540" width="60" height="30" as="geometry" />
        </mxCell>
        <mxCell id="w-RUWUxg6B33_gkkQk5O-133" value="" style="endArrow=none;html=1;rounded=0;exitX=1;exitY=0.5;exitDx=0;exitDy=0;" edge="1" parent="1" source="w-RUWUxg6B33_gkkQk5O-120">
          <mxGeometry width="50" height="50" relative="1" as="geometry">
            <mxPoint x="110" y="450" as="sourcePoint" />
            <mxPoint x="561" y="350" as="targetPoint" />
            <Array as="points">
              <mxPoint x="561" y="640" />
            </Array>
          </mxGeometry>
        </mxCell>
        <mxCell id="w-RUWUxg6B33_gkkQk5O-135" value="Has" style="text;html=1;align=center;verticalAlign=middle;resizable=0;points=[];autosize=1;strokeColor=none;fillColor=none;" vertex="1" parent="1">
          <mxGeometry x="565" y="498" width="40" height="30" as="geometry" />
        </mxCell>
        <mxCell id="w-RUWUxg6B33_gkkQk5O-136" value="User Interraction" style="swimlane;fontStyle=0;childLayout=stackLayout;horizontal=1;startSize=26;fillColor=none;horizontalStack=0;resizeParent=1;resizeParentMax=0;resizeLast=0;collapsible=1;marginBottom=0;whiteSpace=wrap;html=1;" vertex="1" parent="1">
          <mxGeometry x="-20" y="362" width="140" height="78" as="geometry" />
        </mxCell>
        <mxCell id="w-RUWUxg6B33_gkkQk5O-137" value="+ following" style="text;strokeColor=none;fillColor=none;align=left;verticalAlign=top;spacingLeft=4;spacingRight=4;overflow=hidden;rotatable=0;points=[[0,0.5],[1,0.5]];portConstraint=eastwest;whiteSpace=wrap;html=1;" vertex="1" parent="w-RUWUxg6B33_gkkQk5O-136">
          <mxGeometry y="26" width="140" height="26" as="geometry" />
        </mxCell>
        <mxCell id="w-RUWUxg6B33_gkkQk5O-138" value="+ DMs" style="text;strokeColor=none;fillColor=none;align=left;verticalAlign=top;spacingLeft=4;spacingRight=4;overflow=hidden;rotatable=0;points=[[0,0.5],[1,0.5]];portConstraint=eastwest;whiteSpace=wrap;html=1;" vertex="1" parent="w-RUWUxg6B33_gkkQk5O-136">
          <mxGeometry y="52" width="140" height="26" as="geometry" />
        </mxCell>
        <mxCell id="w-RUWUxg6B33_gkkQk5O-140" value="" style="endArrow=none;html=1;rounded=0;entryX=0;entryY=0.5;entryDx=0;entryDy=0;exitX=0.456;exitY=-0.044;exitDx=0;exitDy=0;exitPerimeter=0;" edge="1" parent="1" source="w-RUWUxg6B33_gkkQk5O-136" target="w-RUWUxg6B33_gkkQk5O-94">
          <mxGeometry width="50" height="50" relative="1" as="geometry">
            <mxPoint x="110" y="350" as="sourcePoint" />
            <mxPoint x="160" y="300" as="targetPoint" />
            <Array as="points">
              <mxPoint x="44" y="280" />
            </Array>
          </mxGeometry>
        </mxCell>
        <mxCell id="w-RUWUxg6B33_gkkQk5O-141" value="Perform" style="text;html=1;align=center;verticalAlign=middle;resizable=0;points=[];autosize=1;strokeColor=none;fillColor=none;" vertex="1" parent="1">
          <mxGeometry x="75" y="248" width="70" height="30" as="geometry" />
        </mxCell>
        <mxCell id="w-RUWUxg6B33_gkkQk5O-144" value="" style="html=1;shadow=0;dashed=0;align=center;verticalAlign=middle;shape=mxgraph.arrows2.arrow;dy=0.6;dx=40;flipH=1;notch=0;" vertex="1" parent="1">
          <mxGeometry x="65" y="254" width="20" height="18" as="geometry" />
        </mxCell>
        <mxCell id="w-RUWUxg6B33_gkkQk5O-145" value="" style="endArrow=none;html=1;rounded=0;exitX=0.429;exitY=1;exitDx=0;exitDy=0;exitPerimeter=0;entryX=-0.024;entryY=1.069;entryDx=0;entryDy=0;entryPerimeter=0;" edge="1" parent="1" source="w-RUWUxg6B33_gkkQk5O-138" target="w-RUWUxg6B33_gkkQk5O-108">
          <mxGeometry width="50" height="50" relative="1" as="geometry">
            <mxPoint x="110" y="350" as="sourcePoint" />
            <mxPoint x="160" y="300" as="targetPoint" />
            <Array as="points">
              <mxPoint x="40" y="480" />
              <mxPoint x="177" y="480" />
            </Array>
          </mxGeometry>
        </mxCell>
        <mxCell id="w-RUWUxg6B33_gkkQk5O-153" value="Search" style="text;html=1;align=center;verticalAlign=middle;resizable=0;points=[];autosize=1;strokeColor=none;fillColor=none;" vertex="1" parent="1">
          <mxGeometry x="365" y="332" width="60" height="30" as="geometry" />
        </mxCell>
        <mxCell id="w-RUWUxg6B33_gkkQk5O-154" value="0...*" style="text;html=1;align=center;verticalAlign=middle;resizable=0;points=[];autosize=1;strokeColor=none;fillColor=none;" vertex="1" parent="1">
          <mxGeometry x="320" y="373" width="40" height="30" as="geometry" />
        </mxCell>
        <mxCell id="w-RUWUxg6B33_gkkQk5O-155" value="0...*" style="text;html=1;align=center;verticalAlign=middle;resizable=0;points=[];autosize=1;strokeColor=none;fillColor=none;" vertex="1" parent="1">
          <mxGeometry x="320" y="290" width="40" height="30" as="geometry" />
        </mxCell>
        <mxCell id="w-RUWUxg6B33_gkkQk5O-156" value="0...*" style="text;html=1;align=center;verticalAlign=middle;resizable=0;points=[];autosize=1;strokeColor=none;fillColor=none;" vertex="1" parent="1">
          <mxGeometry x="140" y="278" width="40" height="30" as="geometry" />
        </mxCell>
        <mxCell id="w-RUWUxg6B33_gkkQk5O-157" value="0...*" style="text;html=1;align=center;verticalAlign=middle;resizable=0;points=[];autosize=1;strokeColor=none;fillColor=none;" vertex="1" parent="1">
          <mxGeometry x="140" y="380" width="40" height="30" as="geometry" />
        </mxCell>
        <mxCell id="w-RUWUxg6B33_gkkQk5O-158" value="1...*" style="text;html=1;align=center;verticalAlign=middle;resizable=0;points=[];autosize=1;strokeColor=none;fillColor=none;" vertex="1" parent="1">
          <mxGeometry x="-300" y="127" width="40" height="30" as="geometry" />
        </mxCell>
        <mxCell id="w-RUWUxg6B33_gkkQk5O-160" value="1" style="text;html=1;align=center;verticalAlign=middle;resizable=0;points=[];autosize=1;strokeColor=none;fillColor=none;" vertex="1" parent="1">
          <mxGeometry x="-135" y="128" width="30" height="30" as="geometry" />
        </mxCell>
        <mxCell id="w-RUWUxg6B33_gkkQk5O-161" value="1...*" style="text;html=1;align=center;verticalAlign=middle;resizable=0;points=[];autosize=1;strokeColor=none;fillColor=none;" vertex="1" parent="1">
          <mxGeometry x="360" y="-170" width="40" height="30" as="geometry" />
        </mxCell>
        <mxCell id="w-RUWUxg6B33_gkkQk5O-162" value="0...*" style="text;html=1;align=center;verticalAlign=middle;resizable=0;points=[];autosize=1;strokeColor=none;fillColor=none;" vertex="1" parent="1">
          <mxGeometry x="200" y="60" width="40" height="30" as="geometry" />
        </mxCell>
        <mxCell id="w-RUWUxg6B33_gkkQk5O-163" value="0...*" style="text;html=1;align=center;verticalAlign=middle;resizable=0;points=[];autosize=1;strokeColor=none;fillColor=none;" vertex="1" parent="1">
          <mxGeometry x="525" y="60" width="40" height="30" as="geometry" />
        </mxCell>
        <mxCell id="w-RUWUxg6B33_gkkQk5O-164" value="1" style="text;html=1;align=center;verticalAlign=middle;resizable=0;points=[];autosize=1;strokeColor=none;fillColor=none;" vertex="1" parent="1">
          <mxGeometry x="-40" y="50" width="30" height="30" as="geometry" />
        </mxCell>
        <mxCell id="w-RUWUxg6B33_gkkQk5O-165" value="1...*" style="text;html=1;align=center;verticalAlign=middle;resizable=0;points=[];autosize=1;strokeColor=none;fillColor=none;" vertex="1" parent="1">
          <mxGeometry x="140" y="157" width="40" height="30" as="geometry" />
        </mxCell>
        <mxCell id="w-RUWUxg6B33_gkkQk5O-166" value="1" style="text;html=1;align=center;verticalAlign=middle;resizable=0;points=[];autosize=1;strokeColor=none;fillColor=none;" vertex="1" parent="1">
          <mxGeometry x="25" y="157" width="30" height="30" as="geometry" />
        </mxCell>
        <mxCell id="w-RUWUxg6B33_gkkQk5O-167" value="0...*" style="text;html=1;align=center;verticalAlign=middle;resizable=0;points=[];autosize=1;strokeColor=none;fillColor=none;" vertex="1" parent="1">
          <mxGeometry x="45" y="332" width="40" height="30" as="geometry" />
        </mxCell>
        <mxCell id="w-RUWUxg6B33_gkkQk5O-168" value="0...*" style="text;html=1;align=center;verticalAlign=middle;resizable=0;points=[];autosize=1;strokeColor=none;fillColor=none;" vertex="1" parent="1">
          <mxGeometry x="195" y="380" width="40" height="30" as="geometry" />
        </mxCell>
        <mxCell id="w-RUWUxg6B33_gkkQk5O-169" value="0...*" style="text;html=1;align=center;verticalAlign=middle;resizable=0;points=[];autosize=1;strokeColor=none;fillColor=none;" vertex="1" parent="1">
          <mxGeometry x="235" y="380" width="40" height="30" as="geometry" />
        </mxCell>
        <mxCell id="w-RUWUxg6B33_gkkQk5O-170" value="0...2" style="text;html=1;align=center;verticalAlign=middle;resizable=0;points=[];autosize=1;strokeColor=none;fillColor=none;" vertex="1" parent="1">
          <mxGeometry x="270" y="620" width="50" height="30" as="geometry" />
        </mxCell>
        <mxCell id="w-RUWUxg6B33_gkkQk5O-171" value="0...*" style="text;html=1;align=center;verticalAlign=middle;resizable=0;points=[];autosize=1;strokeColor=none;fillColor=none;" vertex="1" parent="1">
          <mxGeometry x="460" y="610" width="40" height="30" as="geometry" />
        </mxCell>
        <mxCell id="w-RUWUxg6B33_gkkQk5O-172" value="0...*" style="text;html=1;align=center;verticalAlign=middle;resizable=0;points=[];autosize=1;strokeColor=none;fillColor=none;" vertex="1" parent="1">
          <mxGeometry x="565" y="350" width="40" height="30" as="geometry" />
        </mxCell>
        <mxCell id="w-RUWUxg6B33_gkkQk5O-173" value="1...*" style="text;html=1;align=center;verticalAlign=middle;resizable=0;points=[];autosize=1;strokeColor=none;fillColor=none;" vertex="1" parent="1">
          <mxGeometry x="460" y="487" width="40" height="30" as="geometry" />
        </mxCell>
        <mxCell id="w-RUWUxg6B33_gkkQk5O-174" value="0...*" style="text;html=1;align=center;verticalAlign=middle;resizable=0;points=[];autosize=1;strokeColor=none;fillColor=none;" vertex="1" parent="1">
          <mxGeometry x="475" y="350" width="40" height="30" as="geometry" />
        </mxCell>
        <mxCell id="w-RUWUxg6B33_gkkQk5O-175" value="0...*" style="text;html=1;align=center;verticalAlign=middle;resizable=0;points=[];autosize=1;strokeColor=none;fillColor=none;" vertex="1" parent="1">
          <mxGeometry x="325" y="242" width="40" height="30" as="geometry" />
        </mxCell>
        <mxCell id="w-RUWUxg6B33_gkkQk5O-176" value="0...*" style="text;html=1;align=center;verticalAlign=middle;resizable=0;points=[];autosize=1;strokeColor=none;fillColor=none;" vertex="1" parent="1">
          <mxGeometry x="390" y="242" width="40" height="30" as="geometry" />
        </mxCell>
        <mxCell id="w-RUWUxg6B33_gkkQk5O-177" value="1...*" style="text;html=1;align=center;verticalAlign=middle;resizable=0;points=[];autosize=1;strokeColor=none;fillColor=none;" vertex="1" parent="1">
          <mxGeometry x="235" y="-110" width="40" height="30" as="geometry" />
        </mxCell>
        <mxCell id="w-RUWUxg6B33_gkkQk5O-178" value="1...*" style="text;html=1;align=center;verticalAlign=middle;resizable=0;points=[];autosize=1;strokeColor=none;fillColor=none;" vertex="1" parent="1">
          <mxGeometry x="420" y="-110" width="40" height="30" as="geometry" />
        </mxCell>
        <mxCell id="w-RUWUxg6B33_gkkQk5O-179" value="0...4" style="text;html=1;align=center;verticalAlign=middle;resizable=0;points=[];autosize=1;strokeColor=none;fillColor=none;" vertex="1" parent="1">
          <mxGeometry x="275" y="517" width="50" height="30" as="geometry" />
        </mxCell>
        <mxCell id="w-RUWUxg6B33_gkkQk5O-180" value="" style="endArrow=none;html=1;rounded=0;entryX=-0.024;entryY=0.024;entryDx=0;entryDy=0;entryPerimeter=0;exitX=1.024;exitY=0.075;exitDx=0;exitDy=0;exitPerimeter=0;" edge="1" parent="1" source="w-RUWUxg6B33_gkkQk5O-16" target="w-RUWUxg6B33_gkkQk5O-20">
          <mxGeometry width="50" height="50" relative="1" as="geometry">
            <mxPoint x="110" y="250" as="sourcePoint" />
            <mxPoint x="160" y="200" as="targetPoint" />
          </mxGeometry>
        </mxCell>
        <mxCell id="w-RUWUxg6B33_gkkQk5O-181" value="Manage" style="text;html=1;align=center;verticalAlign=middle;resizable=0;points=[];autosize=1;strokeColor=none;fillColor=none;" vertex="1" parent="1">
          <mxGeometry x="80" y="68" width="70" height="30" as="geometry" />
        </mxCell>
        <mxCell id="w-RUWUxg6B33_gkkQk5O-183" value="" style="html=1;shadow=0;dashed=0;align=center;verticalAlign=middle;shape=mxgraph.arrows2.arrow;dy=0.6;dx=40;flipH=1;notch=0;" vertex="1" parent="1">
          <mxGeometry x="70" y="72" width="20" height="22" as="geometry" />
        </mxCell>
        <mxCell id="w-RUWUxg6B33_gkkQk5O-184" value="1" style="text;html=1;align=center;verticalAlign=middle;resizable=0;points=[];autosize=1;strokeColor=none;fillColor=none;" vertex="1" parent="1">
          <mxGeometry x="25" y="68" width="30" height="30" as="geometry" />
        </mxCell>
        <mxCell id="w-RUWUxg6B33_gkkQk5O-186" value="1" style="text;html=1;align=center;verticalAlign=middle;resizable=0;points=[];autosize=1;strokeColor=none;fillColor=none;" vertex="1" parent="1">
          <mxGeometry x="155" y="68" width="30" height="30" as="geometry" />
        </mxCell>
        <mxCell id="w-RUWUxg6B33_gkkQk5O-187" value="" style="endArrow=none;html=1;rounded=0;exitX=1.01;exitY=0.792;exitDx=0;exitDy=0;exitPerimeter=0;" edge="1" parent="1" source="w-RUWUxg6B33_gkkQk5O-22">
          <mxGeometry width="50" height="50" relative="1" as="geometry">
            <mxPoint x="110" y="250" as="sourcePoint" />
            <mxPoint x="420" y="163" as="targetPoint" />
          </mxGeometry>
        </mxCell>
        <mxCell id="w-RUWUxg6B33_gkkQk5O-188" value="Manage" style="text;html=1;align=center;verticalAlign=middle;resizable=0;points=[];autosize=1;strokeColor=none;fillColor=none;" vertex="1" parent="1">
          <mxGeometry x="325" y="138" width="70" height="30" as="geometry" />
        </mxCell>
        <mxCell id="w-RUWUxg6B33_gkkQk5O-191" value="" style="html=1;shadow=0;dashed=0;align=center;verticalAlign=middle;shape=mxgraph.arrows2.arrow;dy=0.6;dx=40;notch=0;" vertex="1" parent="1">
          <mxGeometry x="386.5" y="144" width="17" height="18" as="geometry" />
        </mxCell>
        <mxCell id="w-RUWUxg6B33_gkkQk5O-192" value="1" style="text;html=1;align=center;verticalAlign=middle;resizable=0;points=[];autosize=1;strokeColor=none;fillColor=none;" vertex="1" parent="1">
          <mxGeometry x="315" y="158" width="30" height="30" as="geometry" />
        </mxCell>
        <mxCell id="w-RUWUxg6B33_gkkQk5O-193" value="1...*" style="text;html=1;align=center;verticalAlign=middle;resizable=0;points=[];autosize=1;strokeColor=none;fillColor=none;" vertex="1" parent="1">
          <mxGeometry x="390" y="158" width="40" height="30" as="geometry" />
        </mxCell>
        <mxCell id="w-RUWUxg6B33_gkkQk5O-198" value="" style="html=1;shadow=0;dashed=0;align=center;verticalAlign=middle;shape=mxgraph.arrows2.arrow;dy=0.6;dx=40;direction=south;notch=0;" vertex="1" parent="1">
          <mxGeometry x="575" y="528" width="20" height="20" as="geometry" />
        </mxCell>
      </root>
    </mxGraphModel>
  </diagram>
</mxfile>
